HIERARCHY
ROOT Hips
{
    OFFSET 0.000000 0.000000 0.000000
    CHANNELS 6 Xposition Yposition Zposition Zrotation Xrotation Yrotation
    JOINT Spine
    {
        OFFSET -0.000000 7.305679 0.000000
        CHANNELS 3 Zrotation Xrotation Yrotation
        JOINT Spine1
        {
            OFFSET -0.000000 20.356625 0.000000
            CHANNELS 3 Zrotation Xrotation Yrotation
            JOINT Neck
            {
                OFFSET -0.000000 22.138498 0.000000
                CHANNELS 3 Zrotation Xrotation Yrotation
                JOINT Head
                {
                    OFFSET -0.000000 13.809516 1.781873
                    CHANNELS 3 Zrotation Xrotation Yrotation
                    End Site
                    {
                        OFFSET -0.000000 17.818729 0.000000
                    }
                }
            }
            JOINT LeftShoulder
            {
                OFFSET 3.599131 17.989975 0.023592
                CHANNELS 3 Zrotation Xrotation Yrotation
                JOINT LeftArm
                {
                    OFFSET 12.560995 0.000000 0.000000
                    CHANNELS 3 Zrotation Xrotation Yrotation
                    JOINT LeftForeArm
                    {
                        OFFSET 22.903347 0.000000 0.000000
                        CHANNELS 3 Zrotation Xrotation Yrotation
                        JOINT LeftHand
                        {
                            OFFSET 21.865294 0.000000 0.000000
                            CHANNELS 3 Zrotation Xrotation Yrotation
                            JOINT LeftHandThumb1
                            {
                                OFFSET 1.853706 -2.106484 2.949078
                                CHANNELS 3 Zrotation Xrotation Yrotation
                                JOINT LeftHandThumb2
                                {
                                    OFFSET 2.049154 0.000000 1.336405
                                    CHANNELS 3 Zrotation Xrotation Yrotation
                                    JOINT LeftHandThumb3
                                    {
                                        OFFSET 2.672809 0.000000 0.000000
                                        CHANNELS 3 Zrotation Xrotation Yrotation
                                        End Site
                                        {
                                            OFFSET 2.381303 0.000000 0.000000
                                        }
                                    }
                                }
                            }
                            JOINT LeftHandIndex1
                            {
                                OFFSET 7.583345 0.000000 2.949078
                                CHANNELS 3 Zrotation Xrotation Yrotation
                                JOINT LeftHandIndex2
                                {
                                    OFFSET 4.454682 0.000000 0.000000
                                    CHANNELS 3 Zrotation Xrotation Yrotation
                                    JOINT LeftHandIndex3
                                    {
                                        OFFSET 2.227341 0.000000 0.000000
                                        CHANNELS 3 Zrotation Xrotation Yrotation
                                        End Site
                                        {
                                            OFFSET 1.984419 0.000000 0.000000
                                        }
                                    }
                                }
                            }
                            JOINT LeftHandMiddle1
                            {
                                OFFSET 7.583345 0.000000 0.977409
                                CHANNELS 3 Zrotation Xrotation Yrotation
                                JOINT LeftHandMiddle2
                                {
                                    OFFSET 4.900151 0.000000 0.000000
                                    CHANNELS 3 Zrotation Xrotation Yrotation
                                    JOINT LeftHandMiddle3
                                    {
                                        OFFSET 2.672809 0.000000 0.000000
                                        CHANNELS 3 Zrotation Xrotation Yrotation
                                        End Site
                                        {
                                            OFFSET 2.381303 0.000000 0.000000
                                        }
                                    }
                                }
                            }
                            JOINT LeftHandRing1
                            {
                                OFFSET 7.162047 0.000000 -0.977409
                                CHANNELS 3 Zrotation Xrotation Yrotation
                                JOINT LeftHandRing2
                                {
                                    OFFSET 4.454682 0.000000 0.000000
                                    CHANNELS 3 Zrotation Xrotation Yrotation
                                    JOINT LeftHandRing3
                                    {
                                        OFFSET 2.227341 0.000000 0.000000
                                        CHANNELS 3 Zrotation Xrotation Yrotation
                                        End Site
                                        {
                                            OFFSET 1.984419 0.000000 0.000000
                                        }
                                    }
                                }
                            }
                            JOINT LeftHandPinky1
                            {
                                OFFSET 6.740750 0.000000 -2.949078
                                CHANNELS 3 Zrotation Xrotation Yrotation
                                JOINT LeftHandPinky2
                                {
                                    OFFSET 3.563746 0.000000 0.000000
                                    CHANNELS 3 Zrotation Xrotation Yrotation
                                    JOINT LeftHandPinky3
                                    {
                                        OFFSET 1.781873 0.000000 0.000000
                                        CHANNELS 3 Zrotation Xrotation Yrotation
                                        End Site
                                        {
                                            OFFSET 1.587536 0.000000 0.000000
                                        }
                                    }
                                }
                            }
                        }
                    }
                }
            }
            JOINT RightShoulder
            {
                OFFSET -3.506995 17.989975 0.023592
                CHANNELS 3 Zrotation Xrotation Yrotation
                JOINT RightArm
                {
                    OFFSET -12.560995 0.000000 0.000000
                    CHANNELS 3 Zrotation Xrotation Yrotation
                    JOINT RightForeArm
                    {
                        OFFSET -22.903347 0.000000 0.000000
                        CHANNELS 3 Zrotation Xrotation Yrotation
                        JOINT RightHand
                        {
                            OFFSET -21.865294 0.000000 0.000000
                            CHANNELS 3 Zrotation Xrotation Yrotation
                            JOINT RightHandThumb1
                            {
                                OFFSET -1.853706 -2.106484 2.949078
                                CHANNELS 3 Zrotation Xrotation Yrotation
                                JOINT RightHandThumb2
                                {
                                    OFFSET -2.049154 0.000000 1.336405
                                    CHANNELS 3 Zrotation Xrotation Yrotation
                                    JOINT RightHandThumb3
                                    {
                                        OFFSET -2.672809 0.000000 0.000000
                                        CHANNELS 3 Zrotation Xrotation Yrotation
                                        End Site
                                        {
                                            OFFSET -2.381303 0.000000 0.000000
                                        }
                                    }
                                }
                            }
                            JOINT RightHandIndex1
                            {
                                OFFSET -7.583345 0.000000 2.949078
                                CHANNELS 3 Zrotation Xrotation Yrotation
                                JOINT RightHandIndex2
                                {
                                    OFFSET -4.454682 0.000000 0.000000
                                    CHANNELS 3 Zrotation Xrotation Yrotation
                                    JOINT RightHandIndex3
                                    {
                                        OFFSET -2.227341 0.000000 0.000000
                                        CHANNELS 3 Zrotation Xrotation Yrotation
                                        End Site
                                        {
                                            OFFSET -1.984419 0.000000 0.000000
                                        }
                                    }
                                }
                            }
                            JOINT RightHandMiddle1
                            {
                                OFFSET -7.583345 0.000000 0.977409
                                CHANNELS 3 Zrotation Xrotation Yrotation
                                JOINT RightHandMiddle2
                                {
                                    OFFSET -4.900151 0.000000 0.000000
                                    CHANNELS 3 Zrotation Xrotation Yrotation
                                    JOINT RightHandMiddle3
                                    {
                                        OFFSET -2.672809 0.000000 0.000000
                                        CHANNELS 3 Zrotation Xrotation Yrotation
                                        End Site
                                        {
                                            OFFSET -2.381303 0.000000 0.000000
                                        }
                                    }
                                }
                            }
                            JOINT RightHandRing1
                            {
                                OFFSET -7.162047 0.000000 -0.977409
                                CHANNELS 3 Zrotation Xrotation Yrotation
                                JOINT RightHandRing2
                                {
                                    OFFSET -4.454682 0.000000 0.000000
                                    CHANNELS 3 Zrotation Xrotation Yrotation
                                    JOINT RightHandRing3
                                    {
                                        OFFSET -2.227341 0.000000 0.000000
                                        CHANNELS 3 Zrotation Xrotation Yrotation
                                        End Site
                                        {
                                            OFFSET -1.984419 0.000000 0.000000
                                        }
                                    }
                                }
                            }
                            JOINT RightHandPinky1
                            {
                                OFFSET -6.740750 0.000000 -2.949078
                                CHANNELS 3 Zrotation Xrotation Yrotation
                                JOINT RightHandPinky2
                                {
                                    OFFSET -3.563746 0.000000 0.000000
                                    CHANNELS 3 Zrotation Xrotation Yrotation
                                    JOINT RightHandPinky3
                                    {
                                        OFFSET -1.781873 0.000000 0.000000
                                        CHANNELS 3 Zrotation Xrotation Yrotation
                                        End Site
                                        {
                                            OFFSET -1.587536 0.000000 0.000000
                                        }
                                    }
                                }
                            }
                        }
                    }
                }
            }
        }
    }
    JOINT LeftUpLeg
    {
        OFFSET 8.909365 0.000000 0.000000
        CHANNELS 3 Zrotation Xrotation Yrotation
        JOINT LeftLeg
        {
            OFFSET -0.000000 -38.765560 0.000000
            CHANNELS 3 Zrotation Xrotation Yrotation
            JOINT LeftFoot
            {
                OFFSET -0.000000 -35.244961 0.000000
                CHANNELS 3 Zrotation Xrotation Yrotation
                JOINT LeftToeBase
                {
                    OFFSET -0.000000 -5.791087 13.364048
                    CHANNELS 3 Zrotation Xrotation Yrotation
                    End Site
                    {
                        OFFSET -0.000000 0.000000 3.563746
                    }
                }
            }
        }
    }
    JOINT RightUpLeg
    {
        OFFSET -8.909365 0.000000 0.000000
        CHANNELS 3 Zrotation Xrotation Yrotation
        JOINT RightLeg
        {
            OFFSET -0.000000 -38.765560 0.000000
            CHANNELS 3 Zrotation Xrotation Yrotation
            JOINT RightFoot
            {
                OFFSET -0.000000 -35.244961 0.000000
                CHANNELS 3 Zrotation Xrotation Yrotation
                JOINT RightToeBase
                {
                    OFFSET -0.000000 -5.791087 13.364048
                    CHANNELS 3 Zrotation Xrotation Yrotation
                    End Site
                    {
                        OFFSET -0.000000 0.000000 3.563746
                    }
                }
            }
        }
    }
}
MOTION
Frames:    4
Frame Time:    0.008333
-5.389666    81.391640    98.073524    1.356186    -0.555781    -0.437500    0.124254    0.167450    -1.189301    -1.757856    5.769063    -0.307897    2.025058    -5.135671    -1.189086    1.364826    -0.558531    -1.221077    2.272055    3.726392    -10.125937    -88.835342    30.353163    -2.084945    10.233428    -4.442685    1.951064    0.156430    -29.661484    7.896828    0.723684    -0.067832    0.806533    -0.000000    0.000000    0.930857    -0.000000    0.000000    1.861715    -4.622063    1.163727    -14.101626    -9.532006    0.000000    0.000000    -4.766003    0.000000    0.000000    -17.365196    -0.257584    -5.796839    -34.624458    0.000000    0.000000    -17.312225    0.000000    0.000000    -29.789305    -3.456576    2.002397    -59.716911    0.000000    0.000000    -29.858458    0.000000    0.000000    -42.109570    -8.397893    9.178452    -85.569725    0.000000    0.000000    -42.784859    0.000000    0.000000    -4.821602    -1.401894    -0.351647    99.611588    51.623646    -10.375233    -10.869138    -37.515087    0.023145    7.376522    -40.835075    -5.866481    1.053347    -1.973935    3.819281    0.000000    0.000000    0.000000    0.000000    0.000000    0.000000    14.593831    0.000000    -0.000000    29.187662    0.000000    -0.000000    14.593831    0.000000    -0.000000    21.065508    -0.925016    -1.764420    42.170147    0.000000    -0.000000    21.085083    0.000000    -0.000000    27.508715    -2.042599    -3.414111    55.152657    0.000000    -0.000000    27.576328    0.000000    -0.000000    34.117474    -3.379660    -4.973042    68.528564    0.000000    -0.000000    34.264278    0.000000    -0.000000    -3.449964    -0.815152    0.859731    0.951223    3.850906    11.765403    -1.748072    -2.354885    -6.539006    -0.271219    1.642307    0.844774    1.163691    -1.285015    1.813155    0.537624    8.173367    -3.700367    -2.433576    -6.968211    3.780035    -0.003854    -1.660907    -0.165019    
-5.417295    81.404205    98.039909    1.386466    -0.541476    -0.501910    0.114413    0.229096    -1.150930    -1.786832    5.674601    -0.295048    2.017733    -5.090709    -1.200919    1.391648    -0.524804    -1.236894    2.264843    3.731738    -10.125989    -88.829079    30.321630    -2.089879    10.234364    -4.430302    1.962783    0.257985    -29.642712    7.966534    0.698735    -0.106288    0.730975    -0.000000    0.000000    0.864769    -0.000000    0.000000    1.729537    -4.629049    1.166604    -14.114526    -9.546955    0.000000    0.000000    -4.773478    0.000000    0.000000    -17.371054    -0.244864    -5.822953    -34.636330    0.000000    0.000000    -17.318161    0.000000    0.000000    -29.795950    -3.431334    1.965441    -59.725693    0.000000    0.000000    -29.862843    0.000000    0.000000    -42.118961    -8.357894    9.132822    -85.575340    0.000000    0.000000    -42.787670    0.000000    0.000000    -4.834274    -1.396107    -0.349867    99.649010    51.656738    -10.390917    -10.860891    -37.487705    0.011085    7.394533    -40.782871    -5.858848    1.007155    -1.991250    3.813350    0.000000    0.000000    0.000000    0.000000    0.000000    0.000000    14.551277    0.000000    -0.000000    29.102558    0.000000    -0.000000    14.551277    0.000000    -0.000000    21.008368    -0.924539    -1.768904    42.055943    0.000000    -0.000000    21.027967    0.000000    -0.000000    27.436901    -2.041730    -3.423391    55.009327    0.000000    -0.000000    27.504658    0.000000    -0.000000    34.030434    -3.378544    -4.987628    68.355232    0.000000    -0.000000    34.177616    0.000000    -0.000000    -3.469598    -0.962790    0.856797    0.974631    4.084343    11.758355    -1.797442    -2.449488    -6.472906    -0.271145    1.638296    0.844191    1.167094    -1.424062    1.830172    0.510352    8.364171    -3.717400    -2.418327    -7.038491    3.844005    -0.005716    -1.658759    -0.161826    
-5.444942    81.417068    98.006477    1.417599    -0.530027    -0.565950    0.104011    0.294691    -1.112812    -1.817926    5.579424    -0.282288    2.012854    -5.046520    -1.212812    1.417538    -0.488298    -1.252428    2.259363    3.737132    -10.125381    -88.823044    30.291409    -2.094189    10.234789    -4.421756    1.975056    0.358670    -29.622532    8.033089    0.674959    -0.144359    0.657312    -0.000000    0.000000    0.800613    -0.000000    0.000000    1.601225    -4.636180    1.169524    -14.127450    -9.562211    0.000000    0.000000    -4.781105    0.000000    0.000000    -17.377117    -0.231967    -5.849354    -34.648624    0.000000    0.000000    -17.324316    0.000000    0.000000    -29.802885    -3.405739    1.927967    -59.735043    0.000000    0.000000    -29.867523    0.000000    0.000000    -42.128765    -8.317327    9.086467    -85.581650    0.000000    0.000000    -42.790825    0.000000    0.000000    -4.845355    -1.390017    -0.349334    99.687546    51.692875    -10.408507    -10.853137    -37.466618    0.001401    7.413529    -40.736706    -5.856527    0.970008    -2.007316    3.811926    0.000000    0.000000    0.000000    0.000000    0.000000    0.000000    14.515773    0.000000    -0.000000    29.031546    0.000000    -0.000000    14.515773    0.000000    -0.000000    20.960350    -0.923246    -1.771001    41.959904    0.000000    -0.000000    20.979950    0.000000    -0.000000    27.376371    -2.039027    -3.427959    54.888268    0.000000    -0.000000    27.444132    0.000000    -0.000000    33.956966    -3.374340    -4.995188    68.208389    0.000000    -0.000000    34.104195    0.000000    -0.000000    -3.489963    -1.110089    0.855263    0.998122    4.323146    11.748422    -1.847368    -2.547062    -6.405833    -0.271027    1.634250    0.843499    1.176110    -1.644943    1.850087    0.476485    8.733138    -3.734858    -2.394964    -7.201036    3.901375    -0.007308    -1.656923    -0.159095    
-5.472642    81.430191    97.971916    1.450098    -0.515259    -0.629587    0.092664    0.359988    -1.075035    -1.852401    5.481969    -0.269602    2.012474    -5.003034    -1.224949    1.441115    -0.448385    -1.267652    2.256815    3.742865    -10.124090    -88.817062    30.261526    -2.098394    10.233962    -4.419283    1.989687    0.456595    -29.600674    8.092703    0.653454    -0.181009    0.588079    -0.000000    0.000000    0.740637    -0.000000    0.000000    1.481273    -4.641223    1.171974    -14.141028    -9.573184    0.000000    0.000000    -4.786592    0.000000    0.000000    -17.381063    -0.218888    -5.876700    -34.656685    0.000000    0.000000    -17.328344    0.000000    0.000000    -29.807768    -3.379266    1.889408    -59.740189    0.000000    0.000000    -29.870094    0.000000    0.000000    -42.136662    -8.275160    9.039019    -85.583794    0.000000    0.000000    -42.791897    0.000000    0.000000    -4.853576    -1.383191    -0.350641    99.726044    51.731209    -10.427465    -10.845523    -37.453922    -0.004156    7.434172    -40.699642    -5.861089    0.946735    -2.021306    3.817169    0.000000    0.000000    0.000000    0.000000    0.000000    0.000000    14.490626    0.000000    -0.000000    28.981253    0.000000    -0.000000    14.490626    0.000000    -0.000000    20.926302    -0.920924    -1.769799    41.891666    0.000000    -0.000000    20.945835    0.000000    -0.000000    27.333490    -2.034006    -3.425993    54.802090    0.000000    -0.000000    27.401043    0.000000    -0.000000    33.905052    -3.366223    -4.992955    68.103714    0.000000    -0.000000    34.051857    0.000000    -0.000000    -3.511196    -1.267572    0.855473    1.021215    4.574233    11.733461    -1.898002    -2.650270    -6.336469    -0.270801    1.629876    0.842512    1.177117    -1.797652    1.874004    0.452765    8.949223    -3.752481    -2.383337    -7.281814    3.957973    -0.008460    -1.656297    -0.157194    
